<?xml version="1.0" standalone="no"?><!DOCTYPE svg PUBLIC "-//W3C//DTD SVG 1.1//EN" "http://www.w3.org/Graphics/SVG/1.1/DTD/svg11.dtd"><svg height="313" node-id="1" sillyvg="true" template-height="313" template-width="375" version="1.1" viewBox="0 0 375 313" width="375" xmlns="http://www.w3.org/2000/svg" xmlns:xlink="http://www.w3.org/1999/xlink"><defs node-id="22"></defs><g node-id="50"><path d="M 21.52 21.90 L 351.83 21.90 L 351.83 289.80 L 21.52 289.80 Z" fill="#6ab5dc" fill-rule="nonzero" group-id="1" node-id="26" stroke="none" target-height="267.9" target-width="330.31" target-x="21.52" target-y="21.9"></path><path d="M 330.45 6.94 C 320.34 6.94 313.55 3.06 307.36 10.11 C 292.28 1.84 273.35 6.98 264.52 21.74 C 258.45 16.25 249.21 16.19 243.08 21.61 C 236.94 27.03 235.85 36.20 240.55 42.91 C 245.25 49.61 254.24 51.72 261.43 47.80 C 264.78 58.50 273.49 66.67 284.38 69.33 C 295.27 71.99 306.77 68.76 314.67 60.80 C 325.05 67.39 338.21 67.81 348.99 61.88 C 359.76 55.95 366.46 44.62 366.45 32.32 C 366.45 13.71 349.08 6.94 330.45 6.94 Z" fill="#ffffff" fill-rule="nonzero" group-id="1" node-id="28" stroke="none" target-height="70.15011" target-width="130.60715" target-x="235.85101" target-y="1.841885"></path><path d="M 72.39 81.97 C 72.39 93.69 62.89 103.19 51.17 103.19 C 39.45 103.19 29.95 93.69 29.95 81.97 C 29.95 70.25 39.45 60.75 51.17 60.75 C 62.89 60.75 72.39 70.25 72.39 81.97 Z" fill="#ffffff" fill-rule="nonzero" group-id="1" node-id="30" stroke="none" target-height="42.440002" target-width="42.44" target-x="29.95" target-y="60.75"></path><path d="M 95.50 53.55 C 95.50 63.60 129.23 102.63 59.32 88.61 C 49.47 86.61 50.79 63.03 53.06 52.79 C 55.24 42.99 65.75 35.79 75.80 35.79 C 85.85 35.79 95.50 43.51 95.50 53.55 Z" fill="#ffffff" fill-rule="nonzero" group-id="1" node-id="32" stroke="none" target-height="66.84" target-width="79.759995" target-x="49.47" target-y="35.79"></path><path d="M 144.01 55.26 C 144.01 69.60 132.39 81.22 118.05 81.22 C 103.71 81.22 92.09 69.60 92.09 55.26 C 92.09 40.92 103.71 29.30 118.05 29.30 C 132.39 29.30 144.01 40.92 144.01 55.26 Z" fill="#ffffff" fill-rule="nonzero" group-id="1" node-id="34" stroke="none" target-height="51.920002" target-width="51.92" target-x="92.09" target-y="29.3"></path><path d="M 177.74 73.83 C 177.74 88.17 166.12 99.79 151.78 99.79 C 137.44 99.79 125.82 88.17 125.82 73.83 C 125.82 59.49 137.44 47.87 151.78 47.87 C 166.12 47.87 177.74 59.49 177.74 73.83 Z" fill="#ffffff" fill-rule="nonzero" group-id="1" node-id="36" stroke="none" target-height="51.920002" target-width="51.920006" target-x="125.82" target-y="47.87"></path><path d="M 108.77 95.99 C 108.77 110.43 97.06 122.14 82.62 122.14 C 68.18 122.14 56.47 110.43 56.47 95.99 C 56.47 81.55 68.18 69.84 82.62 69.84 C 97.06 69.84 108.77 81.55 108.77 95.99 Z" fill="#ffffff" fill-rule="nonzero" group-id="1" node-id="38" stroke="none" target-height="52.300003" target-width="52.299995" target-x="56.47" target-y="69.84"></path><path d="M 153.10 86.52 C 153.10 105.98 137.32 121.76 117.86 121.76 C 98.40 121.76 82.62 105.98 82.62 86.52 C 82.62 67.06 98.40 51.28 117.86 51.28 C 137.32 51.28 153.10 67.06 153.10 86.52 Z" fill="#ffffff" fill-rule="nonzero" group-id="1" node-id="40" stroke="none" target-height="70.48" target-width="70.48" target-x="82.62" target-y="51.28"></path><path d="M 266.79 95.43 C 266.79 108.09 256.52 118.36 243.86 118.36 C 231.20 118.36 220.93 108.09 220.93 95.43 C 220.93 82.77 231.20 72.50 243.86 72.50 C 256.52 72.50 266.79 82.77 266.79 95.43 Z" fill="#dd9e49" fill-rule="nonzero" group-id="1" node-id="42" stroke="none" target-height="45.86" target-width="45.860016" target-x="220.93" target-y="72.5"></path><path d="M 352.43 150.94 C 306.96 77.43 270.58 132.75 270.58 132.75 L 199.34 229.75 L 196.05 234.81 L 266.79 287.35 L 351.79 289.79 Z" fill="#519f5c" fill-rule="nonzero" group-id="1" node-id="44" stroke="none" target-height="212.36002" target-width="156.37999" target-x="196.05" target-y="77.43"></path><path d="M 278.16 290.39 C 278.16 290.39 238.35 263.96 197.34 233.19 C 175.08 216.48 152.47 198.50 135.67 182.77 C 87.93 138.06 22.75 225.22 22.75 225.22 L 23.75 290.39 Z" fill="#7ab970" fill-rule="nonzero" group-id="1" node-id="46" stroke="none" target-height="152.33002" target-width="255.41" target-x="22.75" target-y="138.06"></path><path d="M 37.63 12.50 L 337.15 12.50 C 351.03 12.50 362.28 23.75 362.28 37.63 L 362.28 275.25 C 362.28 289.13 351.03 300.38 337.15 300.38 L 37.63 300.38 C 23.75 300.38 12.50 289.13 12.50 275.25 L 12.50 37.63 C 12.50 23.75 23.75 12.50 37.63 12.50 Z" fill="none" group-id="1" node-id="48" stroke="#fdf9db" stroke-linecap="round" stroke-width="25" target-height="287.88" target-width="349.78" target-x="12.5" target-y="12.5"></path></g></svg>