<?xml version="1.0" standalone="no"?><!DOCTYPE svg PUBLIC "-//W3C//DTD SVG 1.1//EN" "http://www.w3.org/Graphics/SVG/1.1/DTD/svg11.dtd"><svg t="1700206781522" class="icon" viewBox="0 0 1407 1024" version="1.1" xmlns="http://www.w3.org/2000/svg" p-id="5372" xmlns:xlink="http://www.w3.org/1999/xlink" width="65.953125" height="48"><path d="M499.740196 907.106576L288.319274 727.825731 0 941.575404V1023.99009h1400.901024l-494.322959-463.999638zM330.319384 239.481553a107.485928 107.485928 0 0 0-107.3538 107.3538c0 59.193234 48.160566 107.3538 107.3538 107.3538s107.3538-48.160566 107.3538-107.3538-48.160566-107.3538-107.3538-107.3538" fill="#A9D6F7" p-id="5373"></path><path d="M330.319384 503.737061c-86.510647 0-156.901707-70.391061-156.901707-156.901708s70.391061-156.901707 156.901707-156.901707 156.901707 70.391061 156.901707 156.901707-70.391061 156.901707-156.901707 156.901708zM0 0v879.888259l290.400286-215.302174 209.240814 177.464089 408.522498-348.536498L1407.986374 962.682813V0H0z" fill="#D0E2F0" p-id="5374"></path></svg>