<?xml version="1.0" standalone="no"?><!DOCTYPE svg PUBLIC "-//W3C//DTD SVG 1.1//EN" "http://www.w3.org/Graphics/SVG/1.1/DTD/svg11.dtd"><svg t="1680582397136" class="icon" viewBox="0 0 1024 1024" version="1.1" xmlns="http://www.w3.org/2000/svg" p-id="27598" xmlns:xlink="http://www.w3.org/1999/xlink" width="200" height="200"><path d="M508.9 64C210.2 66.1 61.9 216.4 64 515.1c2.1 298.6 152.5 447 451.1 444.8 298.7-2.1 446.9-152.5 444.8-451.1-2-298.6-152.4-446.9-451-444.8zM137.7 514.1c0-92.8 17.3-168.3 51.7-226.5-2.1 29.2-1.9 40-0.3 58.6 1.8 22.1 3.7 33.2 9.2 53.6 5.5 20.3 11.1 35.1 14.8 46.2 1.9 5.7 39.3 22.2 68.4 51.8 28.2 28.6 48 70.2 48 70.2l24-7.4s-33.4 33.3-35 72.1c-1.1 26.2 29.4 62.9 29.4 62.9l57.3 53.6 9.2 129.4 0.3 2.7c-184.6-30.1-277-152.5-277-367.2zM512 888.4c-20.9 0-40.9-0.9-60-2.6l8.8-27.8L605 743.4l7.4-35.1 37-31.4s8.3-24-7.4-35.1c-15.7-11.1-55.4-9.2-55.4-9.2S501.3 558.1 435 525.2c-24.2-12-79.5-7.2-79.5-7.2l-29.6 9.2-16.6-27.7-11.1-22.1s7.4-24-1.9-25.8c-9.2-1.9-27.7 3.7-27.7 3.7s-20.3-3.7-18.5-13c1.8-9.3-3.7-40.7 18.5-48.1 22.2-7.4 20.3-22.1 37-13 16.6 9.3 22.2 1.9 18.5 20.3-3.7 18.5 18.5 44.4 27.7 46.2 9.2 1.9 31.4-20.3 31.4-20.3s0-14.8-9.2-22.2c-9.2-7.4-16.6-20.4-16.6-20.4s-27.7-5.5-1.8-18.4c25.9-13 27.7-13 38.8-24 11.1-11.1 16.6-18.5 27.7-29.6 11.1-11.1-7.4-25.9 22.2-24 29.6 1.8 38.8 5.5 38.8-1.9s-22.2-29.5-12.9-29.5h20.3l-3.7-25.9s-3.7-18.5-14.8-20.3c-11.1-1.9-29.6-18.5-37-11.1-7.4 7.3-7.4 11.1-9.2 20.3-1.8 9.3-18.5 16.6-22.2 9.3-3.7-7.4-9.2-27.7-9.2-27.7s-7.4-13 16.6-20.3c24-7.4 29.6-5.5 37-11.1 7.4-5.5 14.8-16.6 14.8-16.6s6.6-7.1 7-12.8c13.7-0.8 27.8-1.3 42.3-1.3 58.4 0 109.9 6.8 154.6 20.5 6.6 19.9 17 48.2 22.8 49.6 8.9 2.2 35.6 6.7 35.6 6.7s2.2 31.2 2.2 44.5 2.2 40.1 4.5 48.9c2.2 8.9 22.3 24.5 28.9 4.4 6.7-20 4.5-31.1 13.4-31.1s11.1-4.5 26.7 0c15.6 4.4 20 8.9 20 8.9s11.1 6.6 11.1 17.8c0 11.2 17.8 13.4-4.4 20.1-22.2 6.7-22.2 6.7-35.6 15.5-13.4 8.9-28.9 13.4-35.6 31.2-6.7 17.8-8.9 6.6-8.9 37.8 0 31.2-6.7 53.4 0 75.7 6.7 22.3 4.5 31.2 22.2 40.1 17.8 8.9 11.1 13.3 31.2 11.1 20-2.2 49-20 49-20 11.1 17.8 13.3 17.8 24.5 28.9 11.1 11.1 8.9 13.3 8.9 31.1C861.6 786.1 738 888.4 512 888.4z m81.6-679.2c-5.1-11.5-11.6-16.7-15.4-23.1-3.9-6.5-6.4-15.4-6.4-15.4l-39.8-1.3-3.9 6.4s-24.4 16.7-23.1 21.9c1.3 5.2 18 14.1 23.1 17.9 5.1 3.9 5.1 11.6 6.4 23.2 1.3 11.6-2.6 19.3 7.7 21.9 10.3 2.6 9 9 19.3 2.6s1.3-3.9 23.1-14.1c21.8-10.3 28.3-3.9 25.7-16.7-2.5-13.1-11.5-11.8-16.7-23.3z" fill="#040000" p-id="27599"></path></svg>