<?xml version="1.0" standalone="no"?><!DOCTYPE svg PUBLIC "-//W3C//DTD SVG 1.1//EN" "http://www.w3.org/Graphics/SVG/1.1/DTD/svg11.dtd"><svg t="1680582695071" class="icon" viewBox="0 0 1879 1024" version="1.1" xmlns="http://www.w3.org/2000/svg" p-id="50755" xmlns:xlink="http://www.w3.org/1999/xlink" width="366.9921875" height="200"><path d="M1465.119075 459.616185H1244.189595c-25.008092 0-45.428902 20.716763-45.428901 46.168786v14.353757c0 25.452023 20.272832 46.168786 45.428901 46.168786H1464.971098c25.156069 0 45.428902-20.716763 45.428902-46.168786v-14.353757c0-25.452023-20.124855-46.168786-45.280925-46.168786zM952.675145 63.334104c-68.661272 55.343353-212.494798 133.031214-315.930636 207.759538h-0.147977c-1.183815 0.739884-2.36763 4.883237-3.551445 5.623121-12.282081 6.954913-17.757225 26.191908-84.198844 26.191908h-129.627746c-33.294798 0-54.011561 15.833526-54.011561 51.495953v316.670521c0 35.662428 18.94104 53.271676 54.011561 53.271676h130.071676c66.145665 0 71.472832 19.236994 83.606937 26.191907 1.183815 0.591908 2.36763 4.883237 3.551445 5.475145l0.147977 0.147977c100.180347 74.580347 244.901734 158.33526 315.930636 211.606936 21.308671 15.981503 92.485549 44.09711 92.485549-54.899422v-799.075144c0.147977-98.996532-71.620809-67.32948-92.337572-50.460116z m203.912138 218.265896c11.83815 21.012717 34.922543 26.339884 51.939885 11.83815l181.56763-155.375722c17.017341-14.501734 21.160694-43.209249 9.47052-64.221966l-6.510983-11.83815c-11.690173-21.012717-35.07052-26.339884-51.939884-11.83815L1159.398844 205.391908c-17.017341 14.501734-21.160694 43.209249-9.47052 64.369942l6.658959 11.83815z m233.507515 607.29711L1208.527168 733.669364c-17.017341-14.501734-40.249711-9.174566-51.939885 11.690174l-6.658959 11.83815c-11.83815 21.012717-7.546821 49.720231 9.47052 64.369942l181.56763 155.227746c17.017341 14.501734 40.249711 9.322543 51.939884-11.690174l6.65896-11.83815c11.690173-21.012717 7.398844-49.868208-9.47052-64.369942z" fill="#212121" p-id="50756"></path></svg>