<?xml version="1.0" standalone="no"?><!DOCTYPE svg PUBLIC "-//W3C//DTD SVG 1.1//EN" "http://www.w3.org/Graphics/SVG/1.1/DTD/svg11.dtd"><svg t="1680697870887" class="icon" viewBox="0 0 1025 1024" version="1.1" xmlns="http://www.w3.org/2000/svg" p-id="7518" xmlns:xlink="http://www.w3.org/1999/xlink" width="200.1953125" height="200"><path d="M469.775573 530.576898 557.593181 530.576898 626.270764 478.686834 404.150493 478.686834 469.775573 530.576898Z" fill="#272636" p-id="7519"></path><path d="M287.334101 701.218356 736.690899 701.218356 736.690899 566.983192 638.257029 566.983192 566.998192 620.825758 461.621814 620.825758 393.53048 566.983192 287.334101 566.983192 287.334101 701.218356Z" fill="#272636" p-id="7520"></path><path d="M512.003125 0C229.23403 0 0 229.23903 0 512.016875c0 282.764095 229.23403 511.983125 512.016875 511.983125 282.759095 0 512.003125-229.21903 512.003125-511.983125C1024.01 229.23903 794.78097 0 512.003125 0zM319.43414 297.075363l382.006716 0 0 28.672535L319.43414 325.747898 319.43414 297.075363zM319.43414 348.842926l382.006716 0 0 28.672535L319.43414 377.515461 319.43414 348.842926zM319.43414 400.610489l382.006716 0 0 28.672535L319.43414 429.283024 319.43414 400.610489zM319.43414 452.984303l382.006716 0 0 49.45756-63.970078 0-71.260087 53.842566-105.376379 0-68.091333-53.842566-73.310089 0L319.43289 452.984303zM762.398431 726.924637 261.626569 726.924637 261.626569 541.279411l140.840172 0 68.090083 53.837566 87.822607 0 71.260087-53.837566 132.758912 0L762.398431 726.924637z" fill="#272636" p-id="7521"></path><path d="M512.003125 999.03872" fill="#272636" p-id="7522"></path></svg>