<?xml version="1.0" standalone="no"?><!DOCTYPE svg PUBLIC "-//W3C//DTD SVG 1.1//EN" "http://www.w3.org/Graphics/SVG/1.1/DTD/svg11.dtd"><svg t="1680582590538" class="icon" viewBox="0 0 1024 1024" version="1.1" xmlns="http://www.w3.org/2000/svg" p-id="40972" xmlns:xlink="http://www.w3.org/1999/xlink" width="200" height="200"><path d="M544.938667 115.04c0 0-91.530667-12.437333-230.197333 90.912 0-0.010667-124.106667 114.826667-133.034667 201.802667C181.706667 407.765333 315.605333 225.738667 544.938667 115.04zM941.024 320.810667c25.429333-23.808 32.565333-108.170667 32.565333-108.170667C981.578667 123.84 940.330667 87.04 940.330667 87.04 871.093333 16.64 703.413333 74.090667 703.413333 74.090667c-211.637333 67.210667-387.285333 232.64-387.285333 232.64C37.973333 550.24 16.693333 799.125333 16.693333 799.125333c-11.946667 170.890667 135.754667 172.16 135.754667 172.16 152.64 7.573333 224.266667-46.858667 233.216-54.272 96.234667 50.656 183.381333 47.594667 183.381333 47.594667C907.050667 943.157333 974.613333 674.122667 974.613333 674.122667l-224.64 0c-50.581333 121.066667-200.938667 96.864-200.938667 96.864-147.733333-29.642667-149.077333-187.04-149.077333-187.04l596.181333 0 0.010667-0.042667C1003.210667 470.474667 977.898667 384.810667 941.024 320.810667zM753.568 158.784C529.088 290.56 475.861333 354.154667 475.861333 354.154667c53.354667-45.312 126.176-41.941333 126.176-41.941333 166.592 18.4 161.162667 158.144 161.28 158.741333L399.936 470.954667c13.578667-56.885333 33.877333-81.162667 42.197333-89.130667-153.802667 130.442667-247.573333 324.490667-247.573333 324.490667 28.202667 84.629333 105.312 159.477333 169.450667 198.464-48.053333 31.648-103.776 36.96-103.776 36.96-135.754667 16.117333-131.765333-90.165333-131.765333-90.165333C132.384 741.226667 242.890667 569.173333 242.890667 569.173333c101.12-144.042667 240.544-265.077333 240.544-265.077333 137.749333-114.005333 256.522667-169.472 256.522667-169.472 124.736-62.56 182.666667-14.154667 182.666667-14.154667l0-0.010667 0.032 0c73.621333 55.402667 22.016 166.368 11.029333 187.989333C859.552 190.24 753.568 158.784 753.568 158.784z" fill="#272636" p-id="40973"></path></svg>