<?xml version="1.0" standalone="no"?><!DOCTYPE svg PUBLIC "-//W3C//DTD SVG 1.1//EN" "http://www.w3.org/Graphics/SVG/1.1/DTD/svg11.dtd"><svg t="1723688829831" class="icon" viewBox="0 0 1024 1024" version="1.1" xmlns="http://www.w3.org/2000/svg" p-id="2812" xmlns:xlink="http://www.w3.org/1999/xlink" width="48" height="48"><path d="M762.356461 321.919897c0.008976-0.197472 0.053856-0.390456 0.062832-0.592416a15.541951 15.541951 0 0 0-0.192984-2.701777c-0.04488-0.305184-0.143616-0.601392-0.210936-0.906577a15.393847 15.393847 0 0 0-0.462264-1.732369c-0.116688-0.35904-0.282744-0.69564-0.435337-1.045704a20.550561 20.550561 0 0 0-0.709104-1.490017 15.887527 15.887527 0 0 0-0.60588-0.973896 14.630887 14.630887 0 0 0-1.041217-1.395769c-0.139128-0.17952-0.255816-0.376992-0.412896-0.552024l-233.542161-256.246964a15.550927 15.550927 0 0 0-27.058164 10.497437l0.601392 460.612624c0 0.116688 0.031416 0.228888 0.035904 0.350064 0.017952 0.857208 0.094248 1.727881 0.264792 2.585089l0.026928 0.228888c0.161568 0.780912 0.385968 1.552849 0.668712 2.311321 0.040392 0.107712 0.103224 0.210936 0.152592 0.318648 0.103224 0.264792 0.237864 0.511632 0.359041 0.767449a14.971975 14.971975 0 0 0 2.818465 4.142426c0.116688 0.121176 0.215424 0.255816 0.3366 0.368016 0.677688 0.664224 1.404745 1.274593 2.185657 1.804177l0.094248 0.053856c0.731544 0.489192 1.507969 0.8976 2.315809 1.261128 0.206448 0.08976 0.417384 0.166056 0.62832 0.24684 0.69564 0.273768 1.413721 0.498168 2.149753 0.664225 0.20196 0.049368 0.394944 0.098736 0.605881 0.139128 0.951456 0.17952 1.916377 0.305184 2.912713 0.305184h158.336711a15.555415 15.555415 0 0 0 14.612935-10.223669l74.613033-204.356684c0.15708-0.42636 0.237864-0.861696 0.350065-1.297032 0.094248-0.341088 0.210936-0.6732 0.278256-1.023265 0.143616-0.691152 0.215424-1.404745 0.260304-2.118337z" fill="#F78383" p-id="2813"></path><path d="M784.742615 323.39645a21.147466 21.147466 0 0 1-0.121176 1.288056c0.107712-0.839256 0.210936-2.024089 0.228888-2.867833 0.049368-2.244001-0.107712-4.479026-0.466752-6.691611a22.830466 22.830466 0 0 0-0.587928-2.760121c0.08976 0.318648 0.080784 0.29172 0.148104 0.623832a39.009714 39.009714 0 0 0-1.157905-4.241162 27.973717 27.973717 0 0 0-1.095072-2.755633 35.46868 35.46868 0 0 0-3.249314-6.013923 37.313249 37.313249 0 0 0-2.522257-3.357025l0.323136 0.399432c0.341088 0.42636 0.507144 0.65076 0.825793 1.095072a25.083443 25.083443 0 0 0-2.131801-2.697289L541.389681 39.180258c-10.448069-11.502749-27.260124-15.470143-41.805739-9.846677-14.559079 5.663859-24.302531 19.917753-24.280091 35.486632l0.601393 460.612624c0 1.095072 0.098736 2.374153 0.264792 3.460249a20.169081 20.169081 0 0 1-0.2244-2.742169c0.04488 2.244001 0.26928 4.393754 0.668712 6.453747l-0.103224-0.58344a23.799875 23.799875 0 0 0 0.24684 1.332936c0.345576 1.678513 0.8976 3.581426 1.584265 5.408043 0.296208 0.798864 0.722568 1.750321 1.108536 2.504305a17.741072 17.741072 0 0 1-0.641784-1.386793c0.237864 0.610368 0.60588 1.359865 0.780912 1.714417a36.379744 36.379744 0 0 0 3.455762 5.906211c0.951456 1.350889 2.149753 2.796025 3.433321 4.137938-0.242352-0.255816-0.35904-0.376992-0.587928-0.646273a36.442576 36.442576 0 0 0 6.714051 5.852355c0.475728 0.318648 0.960432 0.62832 1.458601 0.906576l0.619344 0.345577a23.11321 23.11321 0 0 1-1.916377-1.148929c1.718905 1.157905 3.554498 2.167705 5.610003 3.092233 1.086096 0.466752 1.620169 0.664224 1.938817 0.789889 1.539385 0.60588 3.343562 1.157905 5.134274 1.566313a38.139041 38.139041 0 0 0 8.455396 0.991848h158.336711a38.125577 38.125577 0 0 0 35.684104-24.957779l74.613034-204.370148c0.534072-1.436161 0.843744-2.692801 0.982872-3.289706l-0.116688 0.430848c0.166056-0.552024 0.475728-1.588753 0.736033-2.939641 0.300696-1.525921 0.511632-3.235849 0.601392-4.864994z m-44.682548-3.55001c0.148104-0.794376 0.31416-1.382305 0.38148-1.588753l-0.278256 0.951457c-0.1122 0.421872-0.206448 0.80784-0.26928 1.027752 0.035904-0.107712 0.20196-0.776424 0.51612-1.633632l-74.635474 204.43298a6.898059 6.898059 0 0 1 6.453747-4.519418h-158.332223c0.767448 0 1.252153 0.085272 1.270104 0.094248a15.999727 15.999727 0 0 1 0.430849 0.076296c0.210936 0.049368 0.569976 0.170544 0.7854 0.255816-0.390456-0.143616-0.228888-0.08976 0.004488 0.013464 0.457776 0.20196 0.843744 0.376992 1.418209 0.767448a19.383681 19.383681 0 0 0-1.395769-0.857208 20.487729 20.487729 0 0 0-0.623832-0.345576l0.525096 0.29172c0.498168 0.278256 0.98736 0.587928 1.454113 0.902088s0.780912 0.601392 0.96492 0.776425c0.408408 0.399432 0.60588 0.610368 0.978384 1.027752a33.072087 33.072087 0 0 0-0.753984-0.83028 7.723851 7.723851 0 0 1 1.243177 1.831105 9.011908 9.011908 0 0 1-0.300696-0.628321 30.446606 30.446606 0 0 0-0.498169-1.05468c0.372504 0.727056 0.62832 1.301521 0.915553 2.073457 0.148104 0.408408 0.255816 0.749496 0.318648 1.090584a19.109913 19.109913 0 0 1 0.13464 0.646273 7.732827 7.732827 0 0 1 0.040392 0.641784 25.312331 25.312331 0 0 0-0.260304-3.024914c0.15708 1.095072 0.228888 2.019601 0.228888 3.128138l-0.60588-460.639552a6.907035 6.907035 0 0 1-4.375802 6.413355 6.866643 6.866643 0 0 1-7.61614-1.790713l233.56909 256.27838a17.714144 17.714144 0 0 1-1.647097-2.059993c0.278256 0.399432 0.655248 0.933504 1.16688 1.570801l0.323137 0.394944a11.659829 11.659829 0 0 1-0.628321-0.852721c0.161568 0.24684 0.049368 0.076296-0.098736-0.188496-0.309672-0.569976-0.439824-0.843744-0.444312-0.85272 0.040392 0.076296 0.260304 0.58344 0.282744 0.659736l0.04488 0.085272a14.859775 14.859775 0 0 1-0.71808-2.064481l0.035904 0.152592 0.309672 1.292545a18.230264 18.230264 0 0 1-0.390456-1.974721 8.437444 8.437444 0 0 1-0.026928-0.911064c0.017952-0.85272 0.053856-1.400257 0.166056-2.257465a29.831749 29.831749 0 0 0-0.184008 1.804176c0 0.219912 0.026928-0.152592 0.121176-0.60588z" fill="#6E6E96" p-id="2814"></path><path d="M528.051339 531.837216c0.139128-0.300696 0.264792-0.623832 0.376992-0.946969 0.219912-0.58344 0.40392-1.175857 0.552025-1.777248 0.076296-0.29172 0.148104-0.578952 0.210936-0.875161 0.166056-0.924528 0.282744-1.867009 0.282744-2.836417v-158.336712a15.528487 15.528487 0 0 0-10.214693-14.608446L314.902659 277.838741c-0.390456-0.143616-0.794376-0.215424-1.193808-0.327624-0.372504-0.098736-0.74052-0.233376-1.122001-0.300696a15.344479 15.344479 0 0 0-2.252977-0.264792c-0.148104-0.008976-0.296208-0.040392-0.444312-0.04488a15.663127 15.663127 0 0 0-2.755633 0.192984c-0.219912 0.035904-0.42636 0.103224-0.646273 0.152592a15.510535 15.510535 0 0 0-2.006137 0.525096c-0.305184 0.098736-0.592416 0.242352-0.893112 0.368016a14.092326 14.092326 0 0 0-2.517769 1.332937 16.273495 16.273495 0 0 0-1.490017 1.113025c-0.161568 0.130152-0.341088 0.228888-0.498168 0.372504L42.831 514.500064a15.555415 15.555415 0 1 0 10.497437 27.058164l460.612624-0.596904c0.148104 0 0.287232-0.04488 0.435336-0.049368 0.664224-0.013464 1.341913-0.094248 2.010625-0.20196a17.413448 17.413448 0 0 0 1.485529-0.318648c0.507144-0.130152 1.027752-0.255816 1.52592-0.448801 0.071808-0.02244 0.130152-0.06732 0.192984-0.094248 0.421872-0.166056 0.816816-0.368016 1.216249-0.569976a15.977287 15.977287 0 0 0 1.225225-0.659736 22.17073 22.17073 0 0 0 1.068144-0.71808c0.412896-0.300696 0.798864-0.637296 1.175857-0.964921 0.278256-0.264792 0.569976-0.49368 0.843744-0.776424 0.58344-0.614856 1.126489-1.252153 1.602217-1.956769 0.15708-0.228888 0.278256-0.47124 0.421872-0.709104 0.3366-0.520608 0.641784-1.07712 0.906576-1.656073z" fill="#5FD4FF" p-id="2815"></path><path d="M548.453796 541.167772c0.466752-1.014288 0.794376-1.875985 1.045705-2.585089 0.462264-1.216249 0.911064-2.679337 1.265616-4.142426 0.1122-0.47124 0.255816-1.014288 0.394945-1.687489l0.103224-0.547536a38.004401 38.004401 0 0 0 0.641784-6.812787V367.060221a38.094161 38.094161 0 0 0-24.980219-35.697568L322.595095 256.763084a28.611013 28.611013 0 0 0-3.137114-0.937993l0.399432 0.1122c-0.569976-0.170544-1.615681-0.484704-2.944129-0.749496a37.878737 37.878737 0 0 0-5.470874-0.655248c0.623832 0.035904 1.05468 0.071808 1.678512 0.148104a27.138948 27.138948 0 0 0-2.562649-0.210936 38.686577 38.686577 0 0 0-6.916011 0.457776 29.975366 29.975366 0 0 0-1.813153 0.368016 36.070072 36.070072 0 0 0-4.676498 1.270105c-1.027752 0.354552-1.840081 0.709104-2.230537 0.87516a36.47848 36.47848 0 0 0-4.025738 1.961257c-0.85272 0.480216-1.615681 0.973896-2.109361 1.292545a39.597642 39.597642 0 0 0-3.635281 2.710753 19.388169 19.388169 0 0 1 1.561824-1.193809 24.719915 24.719915 0 0 0-2.908225 2.315809L27.706434 497.925872c-11.525189 10.501925-15.470143 27.322956-9.824237 41.846131 5.618979 14.505223 19.877361 24.257651 35.46868 24.235211l460.608136-0.596904c1.198297 0 2.612017-0.121176 3.792362-0.31416a19.590129 19.590129 0 0 1-2.710754 0.264792 35.953384 35.953384 0 0 0 4.954755-0.484704 37.654337 37.654337 0 0 0 3.725041-0.803353c0.655248-0.170544 2.077945-0.529584 3.75197-1.175856-0.332112 0.116688-0.655248 0.242352-0.991848 0.350064a24.701963 24.701963 0 0 0 1.938816-0.749496l-0.578952 0.242352a33.660015 33.660015 0 0 0 3.03389-1.391281 32.807295 32.807295 0 0 0 3.006961-1.665049c0.803352-0.484704 1.674025-1.072632 2.531233-1.709928 1.09956-0.812328 2.028577-1.602217 2.710753-2.203609 0.60588-0.529584 1.297033-1.148929 2.109361-1.974721 1.588753-1.669537 2.831929-3.190969 3.944954-4.797674 0.435336-0.623832 1.081608-1.691977 1.449625-2.351713l0.013464-0.02244-0.354553 0.60588c0.83028-1.341913 1.557337-2.710753 2.167705-4.061642z m-40.459338-19.361241a26.003484 26.003484 0 0 0-0.664224 1.157905c0.368016-0.668712 0.51612-0.893112 0.946968-1.516945 0.309672-0.453288 0.547536-0.700128 0.569977-0.727056 0.53856-0.561 0.843744-0.839256 0.929016-0.906577l-0.578952 0.516121c0.125664-0.116688 0.318648-0.282744 0.632808-0.507145 0.219912-0.161568 0.417384-0.287232 0.49368-0.3366 0.278256-0.170544 0.565488-0.31416 0.596905-0.332112l-0.471241 0.237864c0.062832-0.031416 0.390456-0.188496 0.884137-0.385968-0.192984 0.080784-0.385968 0.152592-0.578953 0.242352a19.747209 19.747209 0 0 1 1.552849-0.574464c-0.332112 0.103224-0.659736 0.228888-0.982872 0.350064 0.727056-0.278256 1.261129-0.430848 1.359864-0.457776-0.170544 0.049368-0.42636 0.107712-0.42636 0.107712 0.076296-0.02244 0.323136-0.071808 0.475728-0.094248 0.058344-0.008976 0.498168-0.080784 1.202785-0.094248a26.21442 26.21442 0 0 0-3.352538 0.305184c1.184833-0.197472 2.154241-0.26928 3.361514-0.26928l-460.639552 0.596904a6.848691 6.848691 0 0 1 6.431307 4.398242c1.03224 2.656897 0.3366 5.632443-1.781737 7.562283l256.260428-233.551137c-0.776424 0.704616-1.341913 1.166881-2.203609 1.754809 0.489192-0.3366 1.238689-0.861696 2.113849-1.602217a7.117971 7.117971 0 0 1-1.867009 1.157905l0.569976-0.242352 0.058344-0.026928a15.564391 15.564391 0 0 1-1.063656 0.408408c-0.525096 0.184008-0.87516 0.260304-0.888625 0.264792 0.834768-0.175032 1.314985-0.296208 1.521433-0.354552a13.800606 13.800606 0 0 1-1.763785 0.35904 6.700587 6.700587 0 0 1-1.216248 0.08976 17.696192 17.696192 0 0 1-2.333761-0.175032c0.552024 0.076296 1.323961 0.152592 1.880472 0.184008 0.188496 0.008976-0.192984-0.008976-0.794376-0.125664a14.635375 14.635375 0 0 1-1.404745-0.3366l0.942481 0.273768 1.036728 0.26928 0.062832 0.013464a16.403647 16.403647 0 0 1-1.718904-0.534072l204.424004 74.630985a6.911523 6.911523 0 0 1-4.528394-6.467211v158.332224c0-0.704616 0.071808-1.148929 0.076296-1.166881 0.049368-0.29172 0.040392-0.237864 0.098736-0.520608l0.103224-0.466752a27.951277 27.951277 0 0 1-0.161568 0.655248c0.094248-0.390456 0.175032-0.655248 0.26928-0.902088-0.080784 0.2244 0.026928-0.071808 0.219912-0.484704 0.20196-0.47124 0.385968-0.767448 0.345576-0.709105z" fill="#6E6E96" p-id="2816"></path><path d="M988.847971 519.302226a15.600295 15.600295 0 0 0-14.532151-9.936436l-460.617111 0.610368c-0.098736 0-0.188496 0.031416-0.287232 0.031416a15.326527 15.326527 0 0 0-2.746658 0.278256c-0.035904 0.008976-0.076296 0.008976-0.1122 0.013464a15.322039 15.322039 0 0 0-2.306833 0.668712l-0.31416 0.143616c-0.287232 0.1122-0.561 0.260304-0.843744 0.394945-0.565488 0.26928-1.117513 0.561-1.642609 0.884136a15.133543 15.133543 0 0 0-2.293369 1.777249c-0.188496 0.175032-0.385968 0.332112-0.565488 0.51612a15.779815 15.779815 0 0 0-1.691977 2.055505c-0.121176 0.17952-0.215424 0.376992-0.332112 0.561a16.470967 16.470967 0 0 0-0.973897 1.790713c-0.143616 0.309672-0.260304 0.632808-0.38148 0.951456a15.896503 15.896503 0 0 0-0.534072 1.718905c-0.080784 0.323136-0.166056 0.646272-0.2244 0.978385a15.447703 15.447703 0 0 0-0.260304 2.594065c0 0.062832-0.017952 0.1122-0.017952 0.184008v28.588573l0.004488 0.04488v129.69877c0 6.534531 4.08857 12.37791 10.21918 14.617423l204.361173 74.604058c0.363528 0.130152 0.736032 0.20196 1.108536 0.300696 0.412896 0.116688 0.816816 0.260304 1.234201 0.3366 0.65076 0.121176 1.297033 0.17952 1.943304 0.228888 0.260304 0.017952 0.507144 0.071808 0.762961 0.076296 0.906576 0.017952 1.804177-0.049368 2.706265-0.192984 0.264792-0.040392 0.51612-0.121176 0.789888-0.17952 0.632808-0.130152 1.252153-0.278256 1.867009-0.489192 0.31416-0.107712 0.623832-0.260304 0.937993-0.385969a15.021343 15.021343 0 0 0 2.481865-1.314984c0.520608-0.341088 1.023264-0.713592 1.494504-1.117513 0.161568-0.13464 0.341088-0.233376 0.493681-0.368016l256.251451-233.542161a15.559903 15.559903 0 0 0 4.02125-17.121728z" fill="#FFBF00" p-id="2817"></path><path d="M1009.766548 511.165478c-5.645907-14.523175-19.908777-24.266627-35.473168-24.244186l-460.617111 0.610368c-1.014288 0-2.172193 0.08976-3.177506 0.228888 1.014288-0.139128 1.893937-0.197472 2.92169-0.197472a38.170457 38.170457 0 0 0-7.18978 0.722568 21.87901 21.87901 0 0 1 2.688314-0.372504c-0.26928 0.017952-0.569976 0.053856-0.839257 0.085272a22.50733 22.50733 0 0 0-2.113849 0.3366 37.367105 37.367105 0 0 0-5.713226 1.669537 25.173203 25.173203 0 0 0-0.798865 0.332112 28.996981 28.996981 0 0 0-2.077945 0.937992 37.443401 37.443401 0 0 0-9.554956 6.512091 21.843106 21.843106 0 0 0-1.292544 1.225225 38.709017 38.709017 0 0 0-4.17833 5.093882 30.697934 30.697934 0 0 0-1.252153 2.042041c0.058344-0.103224 0.237864-0.421872 0.489192-0.816816a37.981961 37.981961 0 0 0-2.428009 4.49249c-0.466752 1.014288-0.803352 1.925353-0.98736 2.405569a39.548274 39.548274 0 0 0-1.270105 4.093058c-0.161568 0.65076-0.368016 1.458601-0.552024 2.499817-0.38148 2.104873-0.58344 4.191794-0.60588 6.287691a20.958969 20.958969 0 0 1 0.282744-3.307658 24.051203 24.051203 0 0 0-0.305184 3.720554v28.588573a22.772122 22.772122 0 0 0 0.004488 0.035904v129.69877a38.121089 38.121089 0 0 0 24.962267 35.69308l204.361172 74.608546c1.445137 0.520608 2.580601 0.798864 3.119161 0.929016-0.125664-0.035904-0.4488-0.116688-0.578952-0.15708l0.049368 0.013464c0.587928 0.17952 1.808665 0.547536 3.361514 0.843745 1.754809 0.345576 3.446786 0.466752 4.35785 0.543048-0.376992-0.035904-0.47124-0.04488-0.848233-0.094248 0.71808 0.094248 1.683001 0.197472 2.89925 0.219912 2.181169 0.049368 4.44761-0.1122 6.669171-0.47124a37.052945 37.052945 0 0 0 1.534896-0.309672c1.525921-0.323136 3.056329-0.677688 4.811138-1.288057 1.095072-0.376992 1.875985-0.713592 2.29337-0.8976a35.769376 35.769376 0 0 0 6.31013-3.352538c1.113025-0.727056 2.347225-1.647097 3.523082-2.643433-0.587928 0.49368-0.991848 0.812328-1.624657 1.238689 0.655248-0.4488 1.651585-1.157905 2.791537-2.194633l256.224524-233.515234c11.507237-10.488461 15.456679-27.296028 9.824236-41.846131z m-40.064394 8.679796l-256.251451 233.542162c0.780912-0.713592 1.359865-1.180345 2.230537-1.772761a23.24785 23.24785 0 0 0-2.019601 1.521433c0.080784-0.06732 0.305184-0.251328 0.614856-0.453289-0.035904 0.02244 0.143616-0.094248 0.385968-0.2244 0.484704-0.278256 0.798864-0.408408 0.807841-0.412896l-0.578953 0.24684c0.031416-0.008976 0.394944-0.161568 0.902089-0.341088 0.552024-0.188496 0.857208-0.264792 0.888624-0.26928l-0.116688 0.026928-1.207272 0.282744c0.29172-0.080784 0.955944-0.233376 1.804176-0.354552a6.597363 6.597363 0 0 1 1.063657-0.058344c0.789888 0.013464 1.184833 0.04488 1.965745 0.13464a34.198575 34.198575 0 0 0-1.624657-0.161568l-0.148104-0.013464c0.04488 0.004488 0.439824 0.04488 1.018777 0.15708 0.569976 0.103224 1.166881 0.278256 1.328448 0.323136l-0.655248-0.197472a32.793831 32.793831 0 0 0-1.306009-0.341088c0.166056 0.040392 0.771936 0.20196 1.566313 0.480216l-204.29834-74.57713c2.710753 0.991848 4.532882 3.590402 4.532882 6.458235v-129.69877a22.256002 22.256002 0 0 0-0.008976-0.04488v-28.593061c0 1.216249-0.08976 2.338249-0.278256 3.52757a23.382491 23.382491 0 0 0 0.305184-3.70709c-0.008976 0.839256-0.080784 1.252153-0.098736 1.404744-0.071808 0.394944-0.152592 0.731544-0.170544 0.825793a25.716252 25.716252 0 0 0 0.116688-0.49368 5.865819 5.865819 0 0 1-0.260304 0.85272c0.053856-0.13464-0.053856 0.125664-0.228888 0.507144a5.726691 5.726691 0 0 1-0.368017 0.704617c0.192984-0.305184 0.511632-0.861696 0.686665-1.180345a17.682728 17.682728 0 0 1-0.888625 1.422697c-0.31416 0.466752-0.592416 0.767448-0.71808 0.906576-0.42636 0.435336-0.543048 0.556512-1.000824 0.955945l0.641784-0.569977c0.026928-0.031416-0.210936 0.184008-0.587928 0.457776l-0.251329 0.170545a7.046163 7.046163 0 0 1-0.85272 0.484704c0.107712-0.053856 0.385968-0.184008 0.484704-0.237864-0.040392 0.017952-0.430848 0.206448-0.982872 0.42636 0.686664-0.273768 1.516945-0.655248 2.176681-0.991849-0.632808 0.31416-1.104048 0.534072-1.759297 0.798865a9.151036 9.151036 0 0 1-1.431673 0.462264 21.012825 21.012825 0 0 1-2.118337 0.3366l-0.76296 0.076296a22.26049 22.26049 0 0 0 3.84173-0.623832c-0.332112 0.08976-0.664224 0.15708-1.009801 0.233376-0.700128 0.13464-1.175857 0.152592-1.265616 0.152592a23.965931 23.965931 0 0 0 2.782561-0.219912 20.528121 20.528121 0 0 1-2.921689 0.197472l460.648527-0.614856a6.821763 6.821763 0 0 1-6.413354-4.366826 6.942939 6.942939 0 0 1 1.790712-7.557796z" fill="#6E6E96" p-id="2818"></path><path d="M529.505452 525.464253c0-0.103224-0.031416-0.210936-0.035904-0.323136a14.971975 14.971975 0 0 0-0.255816-2.522257l-0.094248-0.498169a15.752887 15.752887 0 0 0-0.623833-2.118337c-0.035904-0.094248-0.08976-0.17952-0.121176-0.278256a12.009893 12.009893 0 0 0-0.430848-0.906576 15.654151 15.654151 0 0 0-1.39128-2.374153 15.155983 15.155983 0 0 0-1.306009-1.588753c-0.148104-0.15708-0.278256-0.327624-0.4488-0.480216a15.115591 15.115591 0 0 0-2.113849-1.745833c-0.103224-0.076296-0.219912-0.121176-0.323136-0.188496a13.957686 13.957686 0 0 0-2.83193-1.431673 14.21799 14.21799 0 0 0-1.965744-0.60588c-0.264792-0.06732-0.507144-0.130152-0.776425-0.184008a16.093975 16.093975 0 0 0-2.845393-0.287232H355.590885v0.008976a15.541951 15.541951 0 0 0-14.608446 10.210205l-74.608546 204.36566c-0.148104 0.412896-0.2244 0.83028-0.3366 1.2342-0.098736 0.35904-0.2244 0.709104-0.29172 1.072633a15.317551 15.317551 0 0 0-0.24684 2.118337c-0.013464 0.20196-0.058344 0.40392-0.062832 0.610368-0.017952 0.8976 0.049368 1.799689 0.188496 2.688313 0.049368 0.332112 0.15708 0.655248 0.2244 0.982873 0.125664 0.552024 0.251328 1.104048 0.435336 1.642608 0.130152 0.385968 0.305184 0.758472 0.466752 1.135465 0.20196 0.466752 0.412896 0.933504 0.659737 1.382304a15.725959 15.725959 0 0 0 1.620168 2.351714c0.161568 0.197472 0.278256 0.412896 0.448801 0.60588l233.555625 256.255939a15.555415 15.555415 0 0 0 27.058164-10.5109l-0.587928-460.6216z" fill="#00CCC6" p-id="2819"></path><path d="M551.945462 525.464253c0-1.153417-0.103224-2.472889-0.278256-3.612842 0.130152 0.848232 0.20196 1.561825 0.233376 2.423521a36.487456 36.487456 0 0 0-0.821304-6.785859 38.632721 38.632721 0 0 0-1.588753-5.417018 23.575475 23.575475 0 0 0-0.843744-1.956769 21.627682 21.627682 0 0 1 0.439824 0.969408 36.3214 36.3214 0 0 0-0.906577-1.979208 37.712681 37.712681 0 0 0-6.651219-9.685109c0.228888 0.233376 0.31416 0.3366 0.534073 0.578952a28.435981 28.435981 0 0 0-1.507969-1.61568 38.852634 38.852634 0 0 0-5.23301-4.308482 30.065126 30.065126 0 0 0-1.068145-0.673201 37.699217 37.699217 0 0 0-4.838066-2.594065c-0.520608-0.242352-1.09956-0.466752-1.409233-0.587928a39.202698 39.202698 0 0 0-5.30033-1.669537 27.888445 27.888445 0 0 0-1.512457-0.345576 39.530322 39.530322 0 0 0-7.248123-0.727056H355.590885a22.44001 22.44001 0 0 0 0 0.008976 38.103137 38.103137 0 0 0-35.688592 24.966755l-74.604057 204.352196c-0.543048 1.494505-0.825792 2.679337-0.964921 3.249314l0.143616-0.516121c-0.175032 0.58344-0.498168 1.656073-0.76296 3.038378a36.334864 36.334864 0 0 0-0.619344 5.179154 16.650488 16.650488 0 0 1 0.13464-1.494505 24.935339 24.935339 0 0 0-0.219912 2.796026c-0.040392 2.230537 0.107712 4.452098 0.453288 6.642243 0.184008 1.216249 0.457776 2.279905 0.574464 2.719729-0.080784-0.300696-0.058344-0.228888-0.125664-0.534072 0.251328 1.117513 0.574464 2.540209 1.144441 4.209746 0.421872 1.225225 0.85272 2.208097 1.086096 2.733193 0.453288 1.03224 0.969408 2.172193 1.691977 3.473713a38.399345 38.399345 0 0 0 3.913538 5.699763 15.052759 15.052759 0 0 1-0.978385-1.279081c0.408408 0.587928 1.041216 1.467577 1.934329 2.481865 0.206448 0.233376 233.762073 256.475852 233.762073 256.475852 10.483973 11.507237 27.296028 15.465655 41.819203 9.837701 14.787967-5.776059 24.280091-19.702329 24.262139-35.49112-0.004488 0.017952-0.601392-460.594672-0.601392-460.563256z m-44.283116 460.639552a6.911523 6.911523 0 0 1 4.348874-6.399891 6.857667 6.857667 0 0 1 7.625115 1.763785l-233.560113-256.260428c0.6732 0.74052 1.063656 1.216249 1.638121 2.042041a24.001835 24.001835 0 0 0-1.243177-1.665049c-0.06732-0.085272 0.103224 0.130152 0.323136 0.466752a9.833212 9.833212 0 0 1 0.605881 1.135465 46.109733 46.109733 0 0 1-0.20196-0.466752c-0.02244-0.049368 0.143616 0.3366 0.332112 0.888624 0.17952 0.525096 0.273768 0.8976 0.282744 0.937992l-0.06732-0.287232a38.134553 38.134553 0 0 0-0.251328-1.027752c0.049368 0.192984 0.197472 0.821304 0.323136 1.642609 0.040392 0.26928 0.06732 0.677688 0.058344 1.104048a16.470967 16.470967 0 0 1-0.15708 2.163217c0.058344-0.435336 0.125664-1.018776 0.175032-1.750321 0.013464-0.264792-0.008976 0.15708-0.13464 0.798865a15.847135 15.847135 0 0 1-0.345576 1.409232l0.233376-0.798864c0.166056-0.623832 0.251328-0.978384 0.305184-1.189321-0.02244 0.098736-0.184008 0.71808-0.47124 1.512457l74.586105-204.29834a6.911523 6.911523 0 0 1-6.471699 4.532882 22.44001 22.44001 0 1 0 0-0.008976h158.354664c-0.704616 0-1.148929-0.071808-1.166881-0.071808-0.71808-0.143616-0.951456-0.20196-1.018776-0.215424l0.623832 0.148104a7.454571 7.454571 0 0 1-0.893112-0.278256c-0.184008-0.076296-0.363528-0.139128-0.543048-0.215424l0.668712 0.26928c-0.017952-0.008976-0.282744-0.1122-0.641784-0.278256a7.764244 7.764244 0 0 1-0.803353-0.457776c0.453288 0.29172 1.059168 0.655248 1.530409 0.911064a16.408135 16.408135 0 0 1-1.467577-0.893112 7.988644 7.988644 0 0 1-1.202784-0.951457 15.856111 15.856111 0 0 1-0.902089-0.96492c0.1122 0.125664 0.318648 0.368016 0.587929 0.655248 0.071808 0.080784-0.184008-0.215424-0.462265-0.601392l-0.237864-0.363528a6.301155 6.301155 0 0 1-0.341088-0.619345l0.26928 0.552024a17.90264 17.90264 0 0 1-0.668712-1.620168 25.559172 25.559172 0 0 0 0.242352 0.601392 7.521891 7.521891 0 0 1-0.435336-1.593241l0.166056 0.843745a10.089029 10.089029 0 0 1-0.2244-1.629145c0.02244 0.996336 0.125664 2.145265 0.278256 3.123649a20.555049 20.555049 0 0 1-0.24684-3.271753l0.601392 460.675456z" fill="#6E6E96" p-id="2820"></path><path d="M303.390934 688.54927l172.02063 172.016142v-328.2031h36.083536l0.511632 447.350578-225.93051-254.496643zM552.111518 655.670168l163.569722 44.884508 252.252642-173.12019-247.445992 246.400287-181.562122-77.768099zM551.914046 453.714565h96.967772l47.124021-127.908058-175.804015-243.240734 219.858243 237.280667-57.518234 180.992146-134.361805 8.2669zM311.998922 299.286903l155.118814 98.327636v112.307763h62.3563V366.198525z" fill="#6E6E96" opacity=".15" p-id="2821"></path></svg>